<?xml version="1.0" standalone="no"?>
<!DOCTYPE svg PUBLIC "-//W3C//DTD SVG 20010904//EN"
 "http://www.w3.org/TR/2001/REC-SVG-20010904/DTD/svg10.dtd">
<svg version="1.0" xmlns="http://www.w3.org/2000/svg"
 width="250.000000pt" height="250.000000pt" viewBox="0 0 250.000000 250.000000"
 preserveAspectRatio="xMidYMid meet">
<metadata>
Created by potrace 1.11, written by Peter Selinger 2001-2013
</metadata>
<g transform="translate(0.000000,250.000000) scale(0.100000,-0.100000)"
fill="#000000" stroke="none">
<path d="M713 2156 c-107 -48 -45 -230 66 -192 46 15 76 57 76 106 0 72 -73
116 -142 86z"/>
<path d="M1104 1834 c-74 -151 -134 -277 -134 -278 0 -2 -35 -77 -79 -167 -43
-90 -122 -258 -176 -374 -53 -116 -113 -244 -132 -285 -20 -41 -53 -115 -75
-165 -22 -49 -48 -109 -59 -132 -35 -78 -39 -91 -25 -96 10 -4 111 -3 179 2
10 0 22 13 27 27 6 14 33 73 61 132 47 98 77 160 189 397 21 44 70 147 109
228 39 82 71 150 71 152 0 2 108 228 240 500 l67 140 -39 80 c-41 82 -64 115
-80 115 -5 0 -70 -124 -144 -276z"/>
<path d="M1483 1498 c-39 -76 -62 -137 -58 -156 3 -19 34 -87 125 -277 65
-136 112 -236 115 -245 1 -3 29 -63 64 -135 34 -71 81 -170 104 -220 66 -145
57 -136 151 -134 121 3 122 4 82 97 -37 86 -63 144 -126 277 -23 50 -62 133
-87 185 -154 334 -315 653 -330 658 -7 2 -24 -21 -40 -50z"/>
</g>
</svg>
