<?xml version="1.0" standalone="no"?>
<!DOCTYPE svg PUBLIC "-//W3C//DTD SVG 20010904//EN" "http://www.w3.org/TR/2001/REC-SVG-20010904/DTD/svg10.dtd">
<svg version="1.0" xmlns="http://www.w3.org/2000/svg" width="512.000000pt" height="512.000000pt"
    viewBox="0 0 512.000000 512.000000" preserveAspectRatio="xMidYMid meet">
    <g transform="translate(0.000000,512.000000) scale(0.100000,-0.100000)" fill="#000000" stroke="none">
        <path d="M865 5106 c-141 -22 -307 -88 -421 -167 -70 -48 -188 -163 -244 -238
-98 -131 -169 -311 -190 -481 -8 -69 -10 -533 -8 -1710 l3 -1615 28 -88 c37
-119 75 -201 141 -302 64 -99 192 -235 286 -306 83 -63 242 -142 345 -171 l80
-23 1620 -3 c1183 -2 1646 0 1715 8 115 14 229 49 334 102 105 52 155 87 243
171 176 167 284 380 313 617 8 69 10 533 8 1710 l-3 1615 -28 88 c-62 199
-161 360 -308 502 -148 143 -286 225 -464 277 l-80 23 -1645 2 c-1282 1 -1663
-2 -1725 -11z m1741 -891 c36 -36 156 -285 150 -311 -13 -50 -1390 -2921
-1412 -2944 -24 -24 -28 -25 -163 -25 -113 1 -143 4 -164 18 -39 25 -42 56
-15 123 13 33 350 743 749 1578 486 1021 734 1530 755 1553 37 39 66 42 100 8z
m559 -1169 c13 -13 46 -68 73 -122 100 -199 879 -1840 891 -1876 28 -85 -8
-109 -168 -116 -144 -6 -179 4 -208 56 -58 103 -833 1744 -833 1762 0 28 116
259 148 293 32 33 65 35 97 3z" />
    </g>
</svg>