<?xml version="1.0" standalone="no"?>
<!DOCTYPE svg PUBLIC "-//W3C//DTD SVG 20010904//EN"
 "http://www.w3.org/TR/2001/REC-SVG-20010904/DTD/svg10.dtd">
<svg version="1.0" xmlns="http://www.w3.org/2000/svg"
 width="1016.000000pt" height="1016.000000pt" viewBox="0 0 1016.000000 1016.000000"
 preserveAspectRatio="xMidYMid meet">
<metadata>
Created by potrace 1.14, written by Peter Selinger 2001-2017
</metadata>
<g transform="translate(0.000000,1016.000000) scale(0.100000,-0.100000)"
fill="#000000" stroke="none">
<path d="M361 8245 c-154 -43 -272 -158 -322 -313 -17 -54 -18 -155 -18 -2227
0 -1958 1 -2175 15 -2224 36 -121 135 -239 240 -288 47 -21 84 -34 279 -93 33
-10 134 -41 225 -70 91 -28 251 -78 355 -110 187 -57 414 -128 570 -177 44
-13 96 -29 115 -35 19 -5 112 -34 205 -63 94 -29 231 -72 305 -95 74 -23 185
-57 245 -77 61 -19 117 -36 125 -38 8 -2 35 -10 60 -18 25 -8 86 -27 135 -42
50 -15 117 -36 150 -47 33 -11 67 -21 75 -23 8 -2 60 -18 115 -35 55 -17 123
-38 150 -46 28 -8 61 -19 75 -24 29 -10 230 -73 245 -76 6 -1 84 -26 175 -54
91 -28 172 -53 180 -55 8 -2 35 -10 60 -18 218 -73 287 -90 365 -90 96 1 119
5 201 43 107 48 208 166 239 277 5 15 10 35 13 43 9 29 8 4335 -1 4380 -23
115 -100 227 -201 291 -57 38 -84 47 -466 165 -80 25 -156 49 -170 54 -14 5
-72 23 -130 40 -58 17 -116 35 -130 40 -14 5 -72 23 -130 40 -58 17 -112 34
-120 37 -8 3 -20 7 -27 9 -16 3 -84 24 -103 31 -8 4 -18 7 -22 8 -5 2 -9 3
-10 5 -2 1 -10 3 -18 5 -33 6 -256 76 -272 85 -10 6 -24 10 -31 10 -8 0 -40 9
-73 19 -32 10 -113 36 -179 56 -66 21 -162 51 -212 67 -51 16 -101 31 -110 33
-10 2 -18 4 -18 5 0 1 -7 3 -15 5 -8 2 -35 10 -60 18 -52 17 -250 80 -265 83
-16 4 -179 54 -195 60 -8 3 -15 5 -15 4 0 0 -27 9 -60 20 -32 11 -68 22 -80
25 -11 2 -144 43 -295 90 -151 48 -385 120 -520 161 -135 41 -252 77 -260 80
-8 3 -17 6 -20 6 -3 1 -36 12 -75 25 -90 31 -219 39 -294 18z m185 -114 c44
-10 108 -30 644 -196 118 -37 280 -87 360 -112 80 -24 150 -46 155 -47 18 -4
218 -67 275 -86 30 -10 109 -35 175 -55 66 -20 163 -50 215 -66 52 -17 102
-32 110 -34 8 -2 119 -36 245 -76 127 -39 235 -72 240 -74 6 -1 17 -5 25 -8
15 -5 186 -58 385 -119 55 -17 132 -41 170 -53 39 -13 104 -33 145 -45 41 -12
93 -28 115 -35 67 -22 250 -79 255 -80 3 -1 46 -14 95 -30 50 -16 95 -29 101
-31 28 -5 315 -98 364 -117 60 -23 136 -91 166 -148 9 -19 23 -56 29 -84 13
-59 14 -4297 1 -4355 -13 -56 -64 -137 -110 -175 -105 -85 -213 -100 -371 -50
-49 16 -94 29 -100 31 -5 1 -113 35 -240 74 -126 40 -237 74 -245 76 -8 2 -73
22 -145 44 -71 23 -222 70 -335 105 -113 35 -293 91 -400 125 -107 33 -202 62
-210 64 -8 3 -35 11 -60 19 -25 9 -83 27 -130 40 -47 14 -130 40 -185 57 -55
18 -127 40 -160 50 -33 10 -213 66 -400 124 -187 59 -347 108 -356 111 -9 2
-47 13 -85 25 -256 80 -391 122 -407 125 -9 2 -22 7 -27 10 -5 3 -18 8 -27 10
-10 2 -61 17 -113 33 -243 77 -306 96 -316 98 -28 5 -102 43 -132 69 -47 40
-87 102 -106 165 -15 50 -16 248 -14 2215 l3 2160 28 57 c30 61 87 125 134
149 15 8 31 18 35 24 4 5 8 7 8 3 0 -4 14 -1 30 6 39 16 116 20 166 7z"/>
<path d="M1072 7093 c-21 -8 -33 -50 -22 -77 6 -18 23 -29 57 -40 26 -8 181
-56 343 -106 162 -51 322 -100 355 -110 33 -10 105 -33 160 -50 55 -17 128
-40 163 -51 34 -10 90 -28 125 -38 172 -53 304 -93 317 -98 17 -7 26 -10 55
-17 11 -3 76 -23 145 -45 297 -94 546 -172 562 -176 9 -2 63 -18 120 -36 57
-19 105 -34 108 -34 6 -1 146 -45 240 -75 63 -20 65 -20 90 -2 28 22 34 52 14
81 -13 19 -38 27 -379 133 -71 22 -164 51 -205 65 -41 13 -82 26 -90 28 -9 2
-83 24 -165 50 -83 26 -197 61 -255 79 -58 18 -159 50 -224 71 -66 20 -124 38
-130 39 -14 3 -212 64 -246 76 -22 8 -283 89 -600 186 -147 46 -392 122 -448
140 -44 14 -67 16 -90 7z"/>
<path d="M1077 6099 c-10 -6 -22 -22 -28 -36 -14 -37 9 -66 62 -82 24 -6 53
-16 64 -21 11 -4 83 -27 160 -50 77 -23 147 -44 155 -47 8 -3 20 -7 26 -8 13
-3 270 -83 304 -95 14 -5 86 -27 160 -50 74 -23 191 -59 260 -80 162 -51 162
-51 320 -100 74 -23 176 -54 225 -70 50 -15 137 -42 195 -60 58 -17 116 -35
130 -40 14 -5 97 -31 185 -59 88 -27 214 -66 280 -87 66 -21 125 -38 132 -40
7 -1 42 -12 78 -24 76 -25 110 -21 127 15 19 41 -2 70 -64 90 -29 9 -60 19
-68 22 -8 4 -17 7 -20 8 -3 0 -16 5 -30 9 -14 4 -90 28 -170 53 -80 24 -188
58 -240 75 -52 16 -102 32 -110 33 -8 2 -125 38 -260 80 -135 43 -249 78 -255
79 -12 3 -241 74 -275 86 -36 13 -293 93 -305 96 -13 2 -226 68 -310 96 -33
11 -67 21 -75 23 -8 2 -89 27 -180 55 -133 42 -359 111 -440 135 -8 2 -23 0
-33 -6z"/>
<path d="M1055 5081 c-24 -47 -2 -85 55 -96 3 -1 32 -9 65 -20 33 -10 65 -19
70 -21 6 -1 30 -9 55 -17 25 -8 92 -29 150 -47 58 -17 112 -34 120 -37 8 -3
20 -7 25 -8 6 -2 78 -24 160 -50 83 -26 177 -55 210 -65 33 -9 120 -36 192
-59 73 -23 136 -42 140 -43 5 0 19 -5 33 -10 14 -6 52 -18 85 -28 186 -56 302
-92 315 -97 8 -3 20 -7 25 -8 6 -2 39 -12 75 -23 36 -12 146 -46 245 -77 99
-31 194 -60 210 -65 17 -6 68 -22 115 -36 47 -14 164 -51 260 -81 96 -30 185
-55 198 -55 12 0 32 8 42 17 52 47 -5 104 -130 130 -3 1 -52 16 -110 35 -58
19 -107 34 -110 35 -3 0 -39 11 -80 25 -41 13 -79 24 -85 25 -5 2 -75 23 -155
48 -167 53 -383 120 -390 122 -3 1 -25 8 -50 15 -25 7 -47 14 -50 15 -3 1 -39
12 -80 25 -41 13 -79 25 -85 26 -5 2 -147 46 -315 99 -168 53 -312 98 -320
100 -8 2 -60 18 -115 35 -104 33 -223 69 -240 74 -5 1 -57 17 -115 35 -58 18
-148 46 -200 63 -52 16 -108 34 -124 39 -52 16 -74 11 -91 -20z"/>
<path d="M1063 4094 c-18 -18 -22 -30 -17 -47 10 -35 23 -46 68 -58 22 -7 66
-20 96 -30 67 -22 288 -90 304 -94 6 -1 18 -5 26 -8 8 -3 62 -20 120 -37 58
-18 130 -41 160 -50 30 -10 102 -33 160 -50 58 -18 125 -39 150 -47 25 -8 53
-16 63 -18 10 -2 44 -13 75 -23 31 -11 91 -30 132 -43 41 -12 109 -33 150 -47
41 -13 82 -26 90 -28 21 -5 158 -47 275 -84 55 -18 127 -40 160 -50 77 -24
191 -59 335 -105 63 -20 120 -37 125 -39 12 -3 16 -4 183 -56 84 -26 143 -39
158 -36 33 9 51 48 36 80 -11 24 -94 56 -282 111 -40 11 -131 39 -390 120 -41
13 -212 66 -380 118 -168 52 -372 116 -455 142 -82 26 -157 48 -165 50 -8 2
-35 11 -60 20 -25 9 -53 18 -63 20 -15 3 -246 74 -295 90 -7 3 -13 4 -15 4 -1
0 -27 9 -57 19 -30 11 -59 20 -65 22 -5 1 -14 4 -20 6 -5 1 -50 15 -100 29
-49 15 -121 37 -160 50 -111 35 -180 55 -185 53 -3 -1 -15 4 -26 10 -12 6 -41
16 -64 21 -38 9 -45 7 -67 -15z"/>
<path d="M9535 8235 c-44 -13 -210 -63 -370 -113 -438 -137 -689 -214 -700
-217 -5 -1 -17 -5 -25 -8 -8 -3 -105 -33 -215 -67 -110 -34 -265 -82 -345
-108 -80 -25 -154 -47 -165 -49 -11 -2 -38 -10 -60 -18 -22 -8 -143 -46 -270
-85 -126 -39 -264 -81 -305 -94 -41 -14 -129 -41 -195 -61 -66 -20 -160 -50
-210 -65 -231 -73 -486 -151 -502 -155 -10 -2 -52 -15 -93 -30 -41 -14 -75
-25 -75 -24 0 2 -99 -29 -396 -121 -190 -60 -282 -129 -350 -262 -16 -32 -27
-58 -24 -58 2 0 -1 -12 -7 -27 -18 -44 -20 -4337 -1 -4416 39 -171 177 -306
351 -344 36 -8 149 -8 187 0 17 3 82 22 145 42 63 21 129 41 145 45 31 8 104
31 265 82 52 17 102 32 110 33 8 2 42 13 75 23 33 11 121 39 195 62 74 23 200
62 279 87 79 25 149 46 155 47 14 3 212 64 246 76 14 5 72 23 130 40 119 36
283 87 320 100 42 14 262 82 274 84 6 1 72 22 146 46 74 24 140 44 145 46 13
2 265 81 325 101 25 8 53 16 63 18 10 2 67 19 125 38 59 19 148 46 197 62 50
15 108 34 130 42 22 8 40 14 40 12 0 -1 29 7 65 18 36 12 133 42 215 67 83 26
184 58 225 72 41 14 80 26 85 27 23 5 93 52 133 91 38 36 111 143 116 171 2 6
8 35 14 65 9 42 12 575 10 2230 l-3 2175 -38 78 c-82 167 -247 271 -422 266
-33 -1 -96 -12 -140 -24z m287 -127 c69 -33 130 -93 165 -165 l28 -58 2 -2165
c2 -2378 6 -2209 -59 -2306 -55 -81 -100 -107 -281 -164 -89 -28 -190 -60
-225 -72 -34 -11 -68 -21 -75 -22 -7 -2 -58 -17 -114 -35 -57 -18 -106 -33
-110 -33 -5 0 -19 -5 -33 -10 -28 -11 -336 -108 -360 -113 -8 -2 -16 -4 -17
-5 -2 -2 -6 -3 -10 -4 -5 -1 -24 -7 -44 -14 -20 -7 -45 -14 -55 -16 -10 -3
-75 -23 -144 -45 -69 -22 -134 -42 -145 -44 -11 -1 -24 -5 -30 -9 -5 -3 -26
-10 -45 -16 -52 -14 -458 -141 -510 -159 -25 -8 -54 -17 -64 -19 -11 -2 -60
-17 -110 -33 -195 -62 -262 -83 -276 -86 -8 -2 -35 -10 -60 -18 -78 -26 -184
-59 -200 -62 -8 -2 -51 -15 -95 -29 -44 -15 -98 -32 -120 -38 -50 -14 -47 -14
-65 -21 -8 -3 -62 -19 -120 -37 -58 -17 -116 -35 -130 -40 -26 -9 -197 -62
-215 -66 -5 -1 -98 -30 -205 -64 -107 -34 -203 -63 -213 -65 -9 -2 -22 -7 -27
-10 -5 -3 -18 -8 -27 -10 -10 -2 -43 -10 -74 -18 -105 -28 -224 -2 -306 67
-41 35 -90 110 -105 160 -17 58 -19 4311 -3 4376 15 58 35 96 78 145 33 39
116 92 155 100 23 4 326 99 365 114 15 6 27 8 27 6 0 -3 21 4 48 14 26 10 49
18 52 18 3 0 37 10 75 22 39 13 75 24 80 25 17 4 159 47 175 53 8 4 17 7 20 8
3 0 32 9 65 20 33 10 65 20 70 21 11 3 453 141 500 156 17 5 37 11 45 13 8 2
51 16 95 29 128 40 262 81 385 119 63 20 158 49 210 65 338 106 687 214 700
217 8 2 103 32 210 66 107 33 209 65 225 69 17 5 80 24 140 43 249 79 511 159
535 164 13 2 26 6 29 8 13 14 145 -5 193 -27z"/>
<path d="M8975 7090 c-21 -9 -120 -40 -145 -45 -8 -2 -102 -31 -209 -65 -106
-34 -201 -63 -210 -65 -9 -2 -29 -9 -46 -15 -16 -6 -73 -24 -125 -40 -52 -15
-169 -51 -260 -80 -91 -28 -199 -62 -240 -75 -41 -13 -178 -55 -305 -95 -126
-39 -237 -73 -245 -75 -8 -3 -96 -30 -195 -61 -99 -30 -215 -67 -257 -80 -43
-13 -115 -36 -160 -50 -80 -25 -202 -62 -223 -68 -5 -2 -17 -6 -25 -9 -8 -3
-33 -11 -55 -17 -48 -14 -65 -34 -65 -72 0 -23 7 -32 31 -42 27 -11 40 -11 93
6 33 11 156 49 271 84 116 36 253 79 305 96 52 16 102 31 110 33 8 2 74 23
145 45 72 23 137 43 145 45 18 5 486 151 625 195 55 18 114 36 130 40 17 4
147 45 290 89 143 45 357 111 475 148 118 36 221 71 229 77 31 24 30 76 -3 98
-14 10 -56 9 -81 -2z"/>
<path d="M8940 6083 c-41 -13 -79 -25 -85 -27 -23 -6 -192 -58 -215 -66 -14
-5 -72 -23 -130 -40 -58 -18 -112 -34 -120 -37 -8 -4 -17 -7 -20 -7 -3 -1 -11
-5 -17 -9 -7 -5 -13 -6 -13 -2 0 3 -8 1 -18 -4 -11 -6 -30 -12 -43 -15 -13 -2
-44 -11 -69 -19 -108 -36 -317 -101 -333 -104 -9 -2 -45 -12 -80 -24 -34 -12
-89 -29 -122 -39 -91 -27 -510 -157 -599 -186 -43 -14 -135 -43 -205 -64 -69
-21 -193 -59 -276 -85 -82 -26 -154 -48 -160 -50 -5 -1 -17 -5 -25 -8 -8 -3
-46 -15 -85 -27 -97 -29 -117 -44 -113 -83 2 -22 11 -36 30 -46 24 -14 32 -14
80 2 162 52 245 78 258 81 8 2 22 6 30 9 8 3 67 21 130 41 63 19 189 58 280
86 91 29 200 63 243 76 42 13 114 36 160 50 45 14 89 27 97 29 8 2 71 21 140
43 185 59 304 96 310 97 3 0 52 16 110 35 58 18 110 34 115 35 6 1 13 3 18 5
4 1 10 3 15 5 4 1 14 4 22 8 15 6 217 67 235 72 6 1 17 5 25 8 15 6 160 50
170 52 3 1 52 16 110 34 58 18 110 34 115 36 6 1 17 5 25 8 8 3 33 11 55 17
64 18 83 31 94 61 8 22 6 32 -7 48 -26 30 -51 31 -132 4z"/>
<path d="M8900 5076 c-52 -17 -98 -32 -103 -33 -4 -1 -36 -10 -70 -21 -34 -11
-125 -39 -202 -62 -77 -23 -149 -46 -160 -51 -20 -8 -307 -97 -335 -104 -21
-5 -182 -55 -200 -62 -8 -3 -20 -7 -26 -8 -6 -2 -76 -24 -156 -49 -80 -25
-152 -46 -160 -46 -8 0 -18 -3 -22 -7 -3 -4 -12 -8 -19 -9 -7 -2 -91 -27 -187
-57 -412 -129 -768 -240 -810 -252 -132 -38 -216 -68 -227 -83 -18 -22 -16
-67 2 -82 8 -7 25 -13 38 -12 20 0 356 99 522 154 33 11 119 38 190 60 72 22
164 50 205 63 41 13 165 51 275 84 110 34 247 77 305 95 104 34 241 76 620
193 47 14 117 36 155 49 101 33 269 83 275 83 3 -1 23 6 45 14 22 9 74 25 115
38 41 12 81 26 89 32 21 18 30 50 18 72 -23 44 -48 45 -177 1z"/>
<path d="M8860 4068 c-85 -27 -162 -51 -170 -53 -8 -2 -51 -15 -95 -30 -44
-14 -87 -28 -95 -30 -8 -2 -94 -28 -191 -59 -97 -31 -185 -57 -195 -59 -11 -2
-26 -7 -34 -10 -8 -3 -46 -15 -85 -27 -38 -12 -77 -25 -85 -28 -8 -3 -20 -6
-26 -7 -5 -2 -70 -22 -144 -45 -74 -23 -139 -43 -144 -45 -6 -1 -18 -5 -26 -8
-8 -3 -62 -20 -120 -37 -58 -17 -112 -34 -120 -37 -8 -3 -20 -7 -27 -9 -7 -1
-70 -20 -140 -42 -157 -50 -177 -56 -183 -57 -5 -1 -204 -63 -230 -71 -8 -3
-15 -4 -15 -3 0 1 -17 -6 -37 -14 -21 -9 -38 -14 -38 -12 0 2 -17 -3 -37 -11
-20 -9 -44 -17 -52 -19 -57 -11 -329 -101 -343 -113 -18 -15 -24 -58 -10 -79
19 -30 60 -23 302 52 135 42 250 77 255 79 6 1 16 5 23 9 6 5 12 6 12 2 0 -3
9 -1 21 5 11 6 28 13 37 15 9 1 121 35 247 75 127 39 235 73 240 74 14 3 199
61 328 102 59 19 115 36 125 38 9 1 24 6 32 9 8 3 83 27 165 52 83 25 161 50
175 55 14 5 210 66 435 136 226 69 422 133 438 140 25 14 32 28 28 64 -2 16
-36 43 -55 45 -6 1 -81 -20 -166 -47z"/>
</g>
</svg>
