<svg width="254" height="160" viewBox="0 0 254 160" fill="none" xmlns="http://www.w3.org/2000/svg">
<path d="M27.572 30.9779L96.4719 52.3719M27.572 55.8555L96.4719 77.2495M27.572 105.611L96.4719 127.005M27.572 80.7331L96.4719 102.127M225.595 30.9779L156.695 52.3719M225.595 55.8555L156.695 77.2495M225.595 105.611L156.695 127.005M225.595 80.7331L156.695 102.127M2.00724 11.9572L2 116.907C1.9997 121.269 4.83965 125.122 9.00577 126.413L109.254 157.476C115.656 159.46 122.15 154.674 122.15 147.971L122.157 43.0213C122.158 38.6597 119.318 34.8063 115.151 33.5154L14.9035 2.4527C8.50081 0.468761 2.00771 5.25415 2.00724 11.9572ZM251.993 11.9572L252 116.907C252 121.269 249.16 125.122 244.994 126.413L144.746 157.476C138.344 159.46 131.85 154.674 131.85 147.971L131.843 43.0213C131.842 38.6597 134.682 34.8063 138.849 33.5154L239.096 2.4527C245.499 0.468761 251.992 5.25415 251.993 11.9572Z" stroke="#606C76" stroke-width="3" stroke-linecap="round"/>
</svg>
